<svg xmlns="http://www.w3.org/2000/svg" width="550" height="308" viewBox="0 0 550 308" role="img" aria-label="WhiteBox">
<title>WhiteBox</title>
<g transform="translate(195 20) scale(0.4)">
<title>WhiteBox</title>
<defs>
  <linearGradient id="SVGID_1_" gradientUnits="userSpaceOnUse" x1="224.41" y1="135.30" x2="422.09" y2="82.33">
    <stop offset="0" stop-color="#71C9C3"></stop>
    <stop offset="1" stop-color="#273E84"></stop>
  </linearGradient>
  <linearGradient id="SVGID_2_" gradientUnits="userSpaceOnUse" x1="140.77" y1="140.05" x2="66.37" y2="417.73">
    <stop offset="0" stop-color="#71C9C3"></stop>
    <stop offset="1" stop-color="#273E84"></stop>
  </linearGradient>
  <linearGradient id="SVGID_3_" gradientUnits="userSpaceOnUse" x1="200.01" y1="199.98" x2="0.02" y2="-0.02">
    <stop offset="0" stop-color="#E13B8B"></stop>
    <stop offset="1" stop-color="#5A2972"></stop>
  </linearGradient>
  <linearGradient id="SVGID_4_" gradientUnits="userSpaceOnUse" x1="200.03" y1="199.97" x2="400.02" y2="399.95">
    <stop offset="0" stop-color="#E13B8B"></stop>
    <stop offset="1" stop-color="#5A2972"></stop>
  </linearGradient>
  <linearGradient id="SVGID_5_" gradientUnits="userSpaceOnUse" x1="260.20" y1="230.65" x2="400.01" y2="230.65">
    <stop offset="0" stop-color="#000000"></stop>
    <stop offset="1" stop-color="#000000" stop-opacity="0"></stop>
  </linearGradient>
  <linearGradient id="SVGID_6_" gradientUnits="userSpaceOnUse" x1="287.10" y1="112.89" x2="201.08" y2="26.88">
    <stop offset="0" stop-color="#000000"></stop>
    <stop offset="1" stop-color="#000000" stop-opacity="0"></stop>
  </linearGradient>
  <linearGradient id="SVGID_7_" gradientUnits="userSpaceOnUse" x1="112.98" y1="112.90" x2="26.94" y2="198.94">
    <stop offset="0" stop-color="#000000"></stop>
    <stop offset="1" stop-color="#000000" stop-opacity="0"></stop>
  </linearGradient>
  <linearGradient id="SVGID_8_" gradientUnits="userSpaceOnUse" x1="112.95" y1="287.06" x2="198.90" y2="373.01">
    <stop offset="0" stop-color="#000000"></stop>
    <stop offset="1" stop-color="#000000" stop-opacity="0"></stop>
  </linearGradient>
</defs>
<g>
  <polygon fill="url(#SVGID_1_)" points="400,172.04 260.19,260.13 260.16,139.85 200.02,44.39 227.98,0 400,0"></polygon>
  <polygon fill="url(#SVGID_2_)" points="171.94,400 0,400 0,227.21 139.87,139.85 139.85,260.18 200.3,356.07"></polygon>
  <polygon fill="#273E84" points="260.16,139.85 200.02,44.39 227.98,0 400,0"></polygon>
  <polygon fill="url(#SVGID_3_)" points="139.88,139.85 43.96,199.75 0,172.06 0,0.02 172.04,0.02 260.16,139.85"></polygon>
  <polygon fill="url(#SVGID_4_)" points="400,400 227.98,399.99 139.87,260.16 260.16,260.16 353.64,201.25 400,227.97"></polygon>
  <polygon fill="url(#SVGID_5_)" points="260.19,260.13 353.64,201.25 400,227.97"></polygon>
  <polygon fill="url(#SVGID_6_)" points="260.16,139.85 200.02,44.39 227.98,0"></polygon>
  <polygon fill="url(#SVGID_7_)" points="139.87,139.85 0.01,172.07 43.96,199.75"></polygon>
  <polygon fill="url(#SVGID_8_)" points="171.94,400 139.87,260.16 200.3,356.07"></polygon>
  <polygon fill="#273E84" points="260.19,260.11 353.64,201.25 399.99,227.98 400,400"></polygon>
  <polygon fill="#273E84" points="139.87,260.15 200.3,356.07 171.94,400 0,400"></polygon>
  <polygon fill="#273E84" points="139.87,139.86 43.96,199.75 0,172.06 0,0.02"></polygon>
</g>
</g>
<path transform="translate(24 298)" d="M87.67-75.90L104.50-75.90L92.07-4.62Q91.74-2.64 90.09-1.32Q88.44 0 86.13 0L86.13 0L70.51 0Q68.20 0 66.50-1.32Q64.79-2.64 64.57-4.73L64.57-4.73L55.99-54.23Q55.66-56.65 55.33-59.13Q55-61.60 54.67-64.02L54.67-64.02L52.58-64.02Q52.36-61.60 52.03-59.07Q51.70-56.54 51.37-54.12L51.37-54.12L42.90-4.73Q42.57-2.64 40.87-1.32Q39.16 0 36.96 0L36.96 0L21.23 0Q18.92 0 17.27-1.32Q15.62-2.64 15.29-4.62L15.29-4.62L2.86-75.90L19.69-75.90L27.61-23.10Q27.94-20.68 28.16-17.93Q28.38-15.18 28.60-12.10L28.60-12.10L30.69-12.10Q31.13-14.74 31.63-17.66Q32.12-20.57 32.45-23.10L32.45-23.10L40.92-70.84Q41.14-73.15 42.79-74.53Q44.44-75.90 46.75-75.90L46.75-75.90L60.61-75.90Q62.92-75.90 64.52-74.53Q66.11-73.15 66.44-70.84L66.44-70.84L74.91-22.99Q75.35-20.35 75.79-17.55Q76.23-14.74 76.56-12.10L76.56-12.10L78.76-12.10Q78.98-14.74 79.25-17.60Q79.53-20.46 79.75-22.88L79.75-22.88L87.67-75.90ZM150.70-55.77L150.70-55.77Q166.10-55.77 166.10-40.70L166.10-40.70L166.10 0L149.82 0L149.82-35.64Q149.82-39.27 148.50-40.65Q147.18-42.02 143.99-42.02L143.99-42.02Q140.47-42.02 136.73-40.70L136.73-40.70Q133.54-39.60 129.14-37.40L129.14-37.40L129.14 0L112.97 0L112.97-77L129.14-77L129.25-58.19Q129.25-53.90 128.81-50.05L128.81-50.05Q128.48-48.29 128.26-46.75L128.26-46.75Q133.21-50.71 138.38-53.02L138.38-53.02Q144.65-55.77 150.70-55.77ZM178.42-54.34L194.48-54.34L194.48 0L178.42 0L178.42-54.34ZM182.93-78.32L189.97-78.32Q194.81-78.32 194.81-73.48L194.81-73.48L194.81-67.54Q194.81-62.70 189.97-62.70L189.97-62.70L182.93-62.70Q178.09-62.70 178.09-67.54L178.09-67.54L178.09-73.48Q178.09-78.32 182.93-78.32L182.93-78.32ZM212.08-69.41L228.36-69.41L228.36-54.34L243.54-54.34L243.54-43.67L228.36-43.67L228.36-17.38Q228.36-14.41 229.74-13.14Q231.11-11.88 234.30-11.88L234.30-11.88L241.34-11.88L243.10-0.88Q241.12-0.22 238.26 0.28Q235.40 0.77 232.54 0.99Q229.68 1.21 227.70 1.21L227.70 1.21Q220.33 1.21 216.21-2.69Q212.08-6.60 212.08-13.75L212.08-13.75L212.08-43.67L202.62-43.67L202.62-53.79L212.08-54.23L212.08-69.41ZM276.87-55.77L276.87-55.77Q290.62-55.77 296.62-51.09Q302.61-46.42 302.61-37.18L302.61-37.18Q302.72-29.81 298.87-26.07Q295.02-22.33 285.56-22.33L285.56-22.33L266.20-22.33Q266.53-19.80 267.08-18.15L267.08-18.15Q268.29-14.41 271.20-12.98Q274.12-11.55 279.29-11.55L279.29-11.55Q283.03-11.55 288.58-11.82Q294.14-12.10 299.75-12.76L299.75-12.76L301.29-2.75Q298.10-1.21 294.03-0.33Q289.96 0.55 285.67 0.94Q281.38 1.32 277.42 1.32L277.42 1.32Q267.08 1.32 260.81-1.71Q254.54-4.73 251.74-11Q248.93-17.27 248.93-27.06L248.93-27.06Q248.93-37.73 251.74-44Q254.54-50.27 260.70-53.02Q266.86-55.77 276.87-55.77ZM265.87-31.46L265.87-31.46L281.16-31.46Q284.79-31.46 285.83-33.05Q286.88-34.65 286.88-37.51L286.88-37.51Q286.88-41.36 284.74-42.84Q282.59-44.33 277.42-44.33L277.42-44.33Q272.91-44.44 270.38-43.17Q267.85-41.91 266.86-38.50L266.86-38.50Q266.09-35.86 265.87-31.46ZM341.88-76.78L341.88-76.78Q351.78-76.78 357.66-75.08Q363.55-73.37 366.19-69.08Q368.83-64.79 368.83-56.98L368.83-56.98Q368.83-48.84 365.69-44.60Q362.56-40.37 355.41-39.71L355.41-39.71L355.41-39.16Q364.21-38.39 367.73-33.22Q371.25-28.05 371.25-18.92L371.25-18.92Q371.25-11.11 368.55-6.82Q365.86-2.53 360.19-0.82Q354.53 0.88 345.40 0.88L345.40 0.88Q338.03 0.88 332.58 0.82Q327.14 0.77 322.57 0.55Q318.01 0.33 313.17 0L313.17 0L313.17-75.90Q317.57-76.34 321.64-76.50Q325.71-76.67 330.55-76.72Q335.39-76.78 341.88-76.78ZM329.56-33.99L329.56-11.33Q335.39-11.33 342.43-11.33L342.43-11.33Q347.16-11.33 349.74-12.21Q352.33-13.09 353.38-15.46Q354.42-17.82 354.42-22.22L354.42-22.22Q354.42-26.95 353.32-29.48Q352.22-32.01 349.58-33Q346.94-33.99 342.10-33.99L342.10-33.99L329.56-33.99ZM329.56-64.68L329.56-44.66L341.88-44.66Q346.06-44.77 348.42-45.54Q350.79-46.31 351.78-48.51Q352.77-50.71 352.77-54.78Q352.77-58.85 351.72-60.94Q350.68-63.03 348.09-63.80Q345.51-64.57 341-64.57L341-64.57Q334.84-64.57 330.11-64.68L330.11-64.68Q329.78-64.68 329.56-64.68L329.56-64.68ZM407.22-55.77L407.22-55.77Q417.45-55.77 423.61-52.97Q429.77-50.16 432.46-43.89Q435.16-37.62 435.16-27.06L435.16-27.06Q435.16-16.72 432.46-10.45Q429.77-4.18 423.61-1.43Q417.45 1.32 407.22 1.32L407.22 1.32Q397.10 1.32 390.94-1.43Q384.78-4.18 382.03-10.45Q379.28-16.72 379.28-27.06L379.28-27.06Q379.28-37.62 382.03-43.89Q384.78-50.16 390.94-52.97Q397.10-55.77 407.22-55.77ZM407.22-44L407.22-44Q403.04-44 400.62-42.57Q398.20-41.14 397.21-37.51Q396.22-33.88 396.22-27.06L396.22-27.06Q396.22-20.46 397.21-16.83Q398.20-13.20 400.62-11.82Q403.04-10.45 407.22-10.45L407.22-10.45Q411.51-10.45 413.93-11.82Q416.35-13.20 417.28-16.83Q418.22-20.46 418.22-27.06L418.22-27.06Q418.22-33.88 417.28-37.51Q416.35-41.14 413.93-42.57Q411.51-44 407.22-44ZM482.13-54.34L498.63-54.34L482.90-27.83L499.84 0L483.34 0L470.03-22.99L469.48-22.99L456.28 0L439.67 0L456.61-27.83L440.99-54.34L457.38-54.34L469.26-33.11L470.25-33.11L482.13-54.34Z" fill="#0A0907"></path>
</svg>