<svg xmlns="http://www.w3.org/2000/svg" width="404" height="284" viewBox="0 0 404 284" role="img" aria-label="WhiteBox">
<title>WhiteBox</title>
<g transform="translate(122 20) scale(0.4)">
<title>WhiteBox</title>
<defs>
  <linearGradient id="SVGID_1_" gradientUnits="userSpaceOnUse" x1="224.41" y1="135.30" x2="422.09" y2="82.33">
    <stop offset="0" stop-color="#71C9C3"></stop>
    <stop offset="1" stop-color="#273E84"></stop>
  </linearGradient>
  <linearGradient id="SVGID_2_" gradientUnits="userSpaceOnUse" x1="140.77" y1="140.05" x2="66.37" y2="417.73">
    <stop offset="0" stop-color="#71C9C3"></stop>
    <stop offset="1" stop-color="#273E84"></stop>
  </linearGradient>
  <linearGradient id="SVGID_3_" gradientUnits="userSpaceOnUse" x1="200.01" y1="199.98" x2="0.02" y2="-0.02">
    <stop offset="0" stop-color="#E13B8B"></stop>
    <stop offset="1" stop-color="#5A2972"></stop>
  </linearGradient>
  <linearGradient id="SVGID_4_" gradientUnits="userSpaceOnUse" x1="200.03" y1="199.97" x2="400.02" y2="399.95">
    <stop offset="0" stop-color="#E13B8B"></stop>
    <stop offset="1" stop-color="#5A2972"></stop>
  </linearGradient>
  <linearGradient id="SVGID_5_" gradientUnits="userSpaceOnUse" x1="260.20" y1="230.65" x2="400.01" y2="230.65">
    <stop offset="0" stop-color="#000000"></stop>
    <stop offset="1" stop-color="#000000" stop-opacity="0"></stop>
  </linearGradient>
  <linearGradient id="SVGID_6_" gradientUnits="userSpaceOnUse" x1="287.10" y1="112.89" x2="201.08" y2="26.88">
    <stop offset="0" stop-color="#000000"></stop>
    <stop offset="1" stop-color="#000000" stop-opacity="0"></stop>
  </linearGradient>
  <linearGradient id="SVGID_7_" gradientUnits="userSpaceOnUse" x1="112.98" y1="112.90" x2="26.94" y2="198.94">
    <stop offset="0" stop-color="#000000"></stop>
    <stop offset="1" stop-color="#000000" stop-opacity="0"></stop>
  </linearGradient>
  <linearGradient id="SVGID_8_" gradientUnits="userSpaceOnUse" x1="112.95" y1="287.06" x2="198.90" y2="373.01">
    <stop offset="0" stop-color="#000000"></stop>
    <stop offset="1" stop-color="#000000" stop-opacity="0"></stop>
  </linearGradient>
</defs>
<g>
  <polygon fill="url(#SVGID_1_)" points="400,172.04 260.19,260.13 260.16,139.85 200.02,44.39 227.98,0 400,0"></polygon>
  <polygon fill="url(#SVGID_2_)" points="171.94,400 0,400 0,227.21 139.87,139.85 139.85,260.18 200.3,356.07"></polygon>
  <polygon fill="#273E84" points="260.16,139.85 200.02,44.39 227.98,0 400,0"></polygon>
  <polygon fill="url(#SVGID_3_)" points="139.88,139.85 43.96,199.75 0,172.06 0,0.02 172.04,0.02 260.16,139.85"></polygon>
  <polygon fill="url(#SVGID_4_)" points="400,400 227.98,399.99 139.87,260.16 260.16,260.16 353.64,201.25 400,227.97"></polygon>
  <polygon fill="url(#SVGID_5_)" points="260.19,260.13 353.64,201.25 400,227.97"></polygon>
  <polygon fill="url(#SVGID_6_)" points="260.16,139.85 200.02,44.39 227.98,0"></polygon>
  <polygon fill="url(#SVGID_7_)" points="139.87,139.85 0.01,172.07 43.96,199.75"></polygon>
  <polygon fill="url(#SVGID_8_)" points="171.94,400 139.87,260.16 200.3,356.07"></polygon>
  <polygon fill="#273E84" points="260.19,260.11 353.64,201.25 399.99,227.98 400,400"></polygon>
  <polygon fill="#273E84" points="139.87,260.15 200.3,356.07 171.94,400 0,400"></polygon>
  <polygon fill="#273E84" points="139.87,139.86 43.96,199.75 0,172.06 0,0.02"></polygon>
</g>
</g>
<path transform="translate(24 274)" d="M62.17-53.82L74.10-53.82L65.29-3.28Q65.05-1.87 63.88-0.94Q62.71 0 61.07 0L61.07 0L50.00 0Q48.36 0 47.15-0.94Q45.94-1.87 45.79-3.35L45.79-3.35L39.70-38.45Q39.47-40.17 39.23-41.92Q39-43.68 38.77-45.40L38.77-45.40L37.28-45.40Q37.13-43.68 36.89-41.89Q36.66-40.09 36.43-38.38L36.43-38.38L30.42-3.35Q30.19-1.87 28.98-0.94Q27.77 0 26.21 0L26.21 0L15.05 0Q13.42 0 12.25-0.94Q11.08-1.87 10.84-3.28L10.84-3.28L2.03-53.82L13.96-53.82L19.58-16.38Q19.81-14.66 19.97-12.71Q20.12-10.76 20.28-8.58L20.28-8.58L21.76-8.58Q22.07-10.45 22.43-12.52Q22.78-14.59 23.01-16.38L23.01-16.38L29.02-50.23Q29.17-51.87 30.34-52.84Q31.51-53.82 33.15-53.82L33.15-53.82L42.98-53.82Q44.62-53.82 45.75-52.84Q46.88-51.87 47.11-50.23L47.11-50.23L53.12-16.30Q53.43-14.43 53.74-12.44Q54.05-10.45 54.29-8.58L54.29-8.58L55.85-8.58Q56.00-10.45 56.20-12.48Q56.39-14.51 56.55-16.22L56.55-16.22L62.17-53.82ZM106.86-39.55L106.86-39.55Q117.78-39.55 117.78-28.86L117.78-28.86L117.78 0L106.24 0L106.24-25.27Q106.24-27.85 105.30-28.82Q104.36-29.80 102.10-29.80L102.10-29.80Q99.61-29.80 96.95-28.86L96.95-28.86Q94.69-28.08 91.57-26.52L91.57-26.52L91.57 0L80.11 0L80.11-54.60L91.57-54.60L91.65-41.26Q91.65-38.22 91.34-35.49L91.34-35.49Q91.10-34.24 90.95-33.15L90.95-33.15Q94.46-35.96 98.12-37.60L98.12-37.60Q102.57-39.55 106.86-39.55ZM126.52-38.53L137.90-38.53L137.90 0L126.52 0L126.52-38.53ZM129.71-55.54L134.71-55.54Q138.14-55.54 138.14-52.10L138.14-52.10L138.14-47.89Q138.14-44.46 134.71-44.46L134.71-44.46L129.71-44.46Q126.28-44.46 126.28-47.89L126.28-47.89L126.28-52.10Q126.28-55.54 129.71-55.54L129.71-55.54ZM150.38-49.22L161.93-49.22L161.93-38.53L172.69-38.53L172.69-30.97L161.93-30.97L161.93-12.32Q161.93-10.22 162.90-9.32Q163.88-8.42 166.14-8.42L166.14-8.42L171.13-8.42L172.38-0.62Q170.98-0.16 168.95 0.20Q166.92 0.55 164.89 0.70Q162.86 0.86 161.46 0.86L161.46 0.86Q156.23 0.86 153.31-1.91Q150.38-4.68 150.38-9.75L150.38-9.75L150.38-30.97L143.68-30.97L143.68-38.14L150.38-38.45L150.38-49.22ZM196.33-39.55L196.33-39.55Q206.08-39.55 210.33-36.23Q214.58-32.92 214.58-26.36L214.58-26.36Q214.66-21.14 211.93-18.49Q209.20-15.83 202.49-15.83L202.49-15.83L188.76-15.83Q188.99-14.04 189.38-12.87L189.38-12.87Q190.24-10.22 192.31-9.20Q194.38-8.19 198.04-8.19L198.04-8.19Q200.69-8.19 204.63-8.38Q208.57-8.58 212.55-9.05L212.55-9.05L213.64-1.95Q211.38-0.86 208.49-0.23Q205.61 0.39 202.57 0.66Q199.52 0.94 196.72 0.94L196.72 0.94Q189.38 0.94 184.94-1.21Q180.49-3.35 178.50-7.80Q176.51-12.25 176.51-19.19L176.51-19.19Q176.51-26.75 178.50-31.20Q180.49-35.65 184.86-37.60Q189.23-39.55 196.33-39.55ZM188.53-22.31L188.53-22.31L199.37-22.31Q201.94-22.31 202.68-23.44Q203.42-24.57 203.42-26.60L203.42-26.60Q203.42-29.33 201.90-30.38Q200.38-31.43 196.72-31.43L196.72-31.43Q193.52-31.51 191.72-30.61Q189.93-29.72 189.23-27.30L189.23-27.30Q188.68-25.43 188.53-22.31ZM242.42-54.44L242.42-54.44Q249.44-54.44 253.62-53.23Q257.79-52.03 259.66-48.98Q261.53-45.94 261.53-40.40L261.53-40.40Q261.53-34.63 259.31-31.63Q257.09-28.63 252.02-28.16L252.02-28.16L252.02-27.77Q258.26-27.22 260.75-23.56Q263.25-19.89 263.25-13.42L263.25-13.42Q263.25-7.88 261.34-4.84Q259.43-1.79 255.41-0.58Q251.39 0.62 244.92 0.62L244.92 0.62Q239.69 0.62 235.83 0.58Q231.97 0.55 228.73 0.39Q225.50 0.23 222.07 0L222.07 0L222.07-53.82Q225.19-54.13 228.07-54.25Q230.96-54.37 234.39-54.41Q237.82-54.44 242.42-54.44ZM233.69-24.10L233.69-8.03Q237.82-8.03 242.81-8.03L242.81-8.03Q246.17-8.03 248.00-8.66Q249.83-9.28 250.57-10.96Q251.32-12.64 251.32-15.76L251.32-15.76Q251.32-19.11 250.54-20.90Q249.76-22.70 247.88-23.40Q246.01-24.10 242.58-24.10L242.58-24.10L233.69-24.10ZM233.69-45.86L233.69-31.67L242.42-31.67Q245.39-31.75 247.06-32.29Q248.74-32.84 249.44-34.40Q250.15-35.96 250.15-38.84Q250.15-41.73 249.40-43.21Q248.66-44.69 246.83-45.24Q245.00-45.79 241.80-45.79L241.80-45.79Q237.43-45.79 234.08-45.86L234.08-45.86Q233.84-45.86 233.69-45.86L233.69-45.86ZM288.76-39.55L288.76-39.55Q296.01-39.55 300.38-37.56Q304.75-35.57 306.66-31.12Q308.57-26.68 308.57-19.19L308.57-19.19Q308.57-11.86 306.66-7.41Q304.75-2.96 300.38-1.01Q296.01 0.94 288.76 0.94L288.76 0.94Q281.58 0.94 277.21-1.01Q272.84-2.96 270.89-7.41Q268.94-11.86 268.94-19.19L268.94-19.19Q268.94-26.68 270.89-31.12Q272.84-35.57 277.21-37.56Q281.58-39.55 288.76-39.55ZM288.76-31.20L288.76-31.20Q285.79-31.20 284.08-30.19Q282.36-29.17 281.66-26.60Q280.96-24.02 280.96-19.19L280.96-19.19Q280.96-14.51 281.66-11.93Q282.36-9.36 284.08-8.38Q285.79-7.41 288.76-7.41L288.76-7.41Q291.80-7.41 293.51-8.38Q295.23-9.36 295.89-11.93Q296.56-14.51 296.56-19.19L296.56-19.19Q296.56-24.02 295.89-26.60Q295.23-29.17 293.51-30.19Q291.80-31.20 288.76-31.20ZM341.87-38.53L353.57-38.53L342.42-19.73L354.43 0L342.73 0L333.29-16.30L332.90-16.30L323.54 0L311.77 0L323.78-19.73L312.70-38.53L324.32-38.53L332.75-23.48L333.45-23.48L341.87-38.53Z" fill="#0A0907"></path>
</svg>